<svg version="1.1" id="Layer_1" xmlns="http://www.w3.org/2000/svg" xmlns:xlink="http://www.w3.org/1999/xlink" x="0px" y="0px"
	 width="100%" viewBox="0 0 496 496" enable-background="new 0 0 496 496" xml:space="preserve">
<path fill="#000000" opacity="1.000000" stroke="none" 
	d="
M333.609375,330.934021 
	C341.089813,327.273956 344.255737,320.579712 347.295502,313.903473 
	C348.942505,310.286102 350.493622,306.487762 351.191650,302.609741 
	C352.100464,297.560699 354.747101,296.409363 359.458130,296.561737 
	C369.231689,296.877869 379.022583,296.657166 388.922363,296.657166 
	C389.082703,297.854370 389.368835,298.534332 389.221954,299.102356 
	C381.266998,329.864319 364.328827,352.724274 332.531982,361.657318 
	C298.097717,371.331360 267.446503,356.967194 253.409729,325.105743 
	C250.008682,317.385834 249.192078,309.092865 248.732727,300.758820 
	C248.566513,297.742920 249.843887,296.616241 252.826233,296.637268 
	C264.648743,296.720795 276.472748,296.728302 288.294922,296.621765 
	C291.114532,296.596375 292.434998,297.789215 293.314758,300.354156 
	C297.224030,311.751587 304.171448,320.734650 314.325287,327.432892 
	C320.288788,331.366913 326.386505,332.731720 333.609375,330.934021 
z"/>
<path fill="#000000" opacity="1.000000" stroke="none" 
	d="
M115.649506,224.309601 
	C112.813339,217.491928 109.852676,211.148865 106.057663,205.255402 
	C104.124138,202.252762 105.085594,200.891586 108.145660,199.825378 
	C125.588799,193.747742 148.282471,202.265747 157.055618,218.269669 
	C159.425690,222.593140 160.054245,222.604950 163.775497,218.555496 
	C174.933838,206.413086 187.970337,197.949432 204.960510,196.489685 
	C218.703583,195.308929 229.920700,199.657104 238.156418,210.702866 
	C246.969696,222.523300 249.783768,236.118179 249.276566,251.379059 
	C245.423416,251.379059 241.983047,251.379700 238.542694,251.378952 
	C229.548279,251.376984 220.550003,251.221512 211.561325,251.447586 
	C207.983917,251.537582 206.356949,250.284439 206.078522,246.787750 
	C205.786026,243.114380 204.860611,239.598404 203.075302,236.312881 
	C197.642105,226.314148 185.565155,225.513779 178.978058,234.740784 
	C176.413727,238.332809 174.767899,242.288193 174.207275,246.667664 
	C173.787048,249.950455 172.337082,251.501709 168.673706,251.448441 
	C155.018311,251.249878 141.356750,251.241013 127.701393,251.434692 
	C124.092880,251.485886 122.596016,249.936951 121.864197,246.776001 
	C120.139442,239.326263 118.615166,231.817108 115.649506,224.309601 
M204.418579,208.047913 
	C204.356506,208.185135 204.294418,208.322372 204.232361,208.459610 
	C204.385956,208.517517 204.537811,208.620987 204.693375,208.626877 
	C215.695038,209.045135 224.854248,213.041931 231.547119,223.088913 
	C227.671280,210.511810 218.822998,205.653122 204.418579,208.047913 
z"/>
<path fill="#000000" opacity="1.000000" stroke="none" 
	d="
M360.218079,251.339447 
	C356.612152,251.542435 355.837433,249.702850 355.668610,246.986633 
	C355.284882,240.812744 353.929901,234.812790 351.834351,228.998810 
	C351.103912,226.972290 350.233093,224.967194 349.176758,223.092987 
	C346.448273,218.251877 342.913605,214.073334 336.791138,214.484222 
	C330.378754,214.914597 328.218323,220.226685 326.426575,225.302109 
	C324.082581,231.941879 323.226501,238.909821 323.391296,245.921906 
	C323.472382,249.370346 321.943146,250.791824 318.874603,251.107376 
	C317.057495,251.294235 315.221130,251.362961 313.393280,251.365265 
	C297.401276,251.385406 281.409210,251.391510 265.417267,251.361679 
	C263.618561,251.358322 261.753052,251.730698 259.966400,250.807938 
	C259.017303,248.546570 260.786194,247.060028 261.647125,245.407394 
	C267.505066,234.162567 275.311340,224.510742 285.671539,217.111740 
	C292.356049,212.337799 299.771484,209.591614 308.155121,210.620819 
	C311.252655,211.001114 313.498413,209.882553 315.779480,207.888824 
	C336.755249,189.555283 364.862000,195.596466 378.003265,211.559402 
	C385.272278,220.389236 389.172333,230.780045 391.265991,241.888123 
	C393.052063,251.364426 392.968079,251.379761 383.180634,251.369339 
	C375.684265,251.361359 368.187927,251.354889 360.218079,251.339447 
M289.924225,231.289444 
	C296.030975,226.919067 302.941467,225.109528 310.436035,225.161057 
	C295.874451,222.178741 286.946747,226.029663 283.554230,236.920013 
	C285.738159,234.971924 287.551758,233.354218 289.924225,231.289444 
z"/>
<path fill="#000000" opacity="1.000000" stroke="none" 
	d="
M153.218369,320.769287 
	C159.111038,325.222260 165.138565,328.751556 171.749283,331.134857 
	C174.950546,332.288940 175.564270,333.968262 174.762741,337.201843 
	C170.332321,355.075409 160.661545,363.088928 141.409790,364.244293 
	C134.263916,364.673126 127.111710,364.557526 120.163490,362.408722 
	C116.823372,361.375732 113.559166,360.200562 110.575073,357.069702 
	C114.269913,352.487762 117.648132,347.683380 119.754448,342.037292 
	C124.716232,328.736938 125.393776,314.802124 126.547134,300.910004 
	C126.670860,299.419617 125.846107,297.362946 128.290024,296.831604 
	C130.591293,296.331268 131.533188,297.999847 132.522614,299.566956 
	C137.847305,308.000580 145.037384,314.621368 153.218369,320.769287 
z"/>
<path fill="#000000" opacity="1.000000" stroke="none" 
	d="
M172.000122,296.661987 
	C192.045242,296.661926 211.590347,296.661926 231.135452,296.661926 
	C231.231873,297.301331 231.328278,297.940704 231.424698,298.580109 
	C216.408249,312.358246 199.414047,318.707214 178.773529,310.965057 
	C177.245667,315.777161 177.647156,320.506561 176.559799,326.129089 
	C163.716537,318.959930 154.524506,309.127991 146.228638,298.308807 
	C146.335266,297.759888 146.441895,297.210999 146.548523,296.662079 
	C154.865723,296.662079 163.182922,296.662079 172.000122,296.661987 
z"/>
<path fill="#000000" opacity="1.000000" stroke="none" 
	d="
M333.759766,296.654633 
	C336.169739,296.824951 338.206146,296.220398 340.638306,297.621277 
	C336.005707,305.945618 329.189697,311.204193 320.014954,313.117737 
	C309.706268,315.267761 304.750519,310.281921 304.178986,297.157227 
	C313.851624,296.057953 323.595978,296.953156 333.759766,296.654633 
z"/>
<path fill="#000000" opacity="1.000000" stroke="none" 
	d="
M152.575470,282.212341 
	C148.426849,283.874420 144.474106,283.638123 139.308548,282.384796 
	C143.525909,279.468872 144.311295,276.086945 143.876221,272.221771 
	C143.489243,268.783905 145.310349,264.620453 139.876312,262.689575 
	C145.228729,259.727417 150.280014,260.406311 155.234970,261.624634 
	C158.128876,262.336182 159.329926,264.726288 159.449127,267.695312 
	C159.624481,272.063232 157.636353,274.563110 153.317398,275.294586 
	C151.518341,275.599304 148.900513,274.507050 148.374146,277.337524 
	C147.869095,280.053375 150.870590,279.400360 152.038467,280.559692 
	C152.364410,280.883301 152.496063,281.402649 152.575470,282.212341 
M153.372849,264.950867 
	C151.453888,264.351685 149.268646,263.441498 148.340210,266.106201 
	C147.764511,267.758514 147.434509,270.020569 149.143280,271.194519 
	C150.896698,272.399109 153.095352,272.132507 154.610519,270.479767 
	C156.253494,268.687683 155.916702,266.849976 153.372849,264.950867 
z"/>
<path fill="#000000" opacity="1.000000" stroke="none" 
	d="
M248.173309,275.991394 
	C246.888321,278.794342 247.679230,282.873016 244.366562,283.377899 
	C240.860535,283.912292 241.943420,279.211426 239.822876,277.709564 
	C239.593765,277.815338 239.237976,277.866211 239.080292,278.070221 
	C237.661194,279.906097 238.079880,283.769775 234.811249,283.393097 
	C231.791046,283.045044 232.242294,279.588654 231.520050,277.329254 
	C230.423752,273.899597 229.391922,270.449341 228.249725,266.738251 
	C230.860870,265.282928 233.356491,265.233521 236.357773,266.989502 
	C233.897858,269.525482 233.360855,272.192596 235.203644,275.314178 
	C237.286240,274.032501 236.725525,270.144379 239.518219,270.074493 
	C242.820282,269.991852 242.061844,273.874573 243.975540,275.612396 
	C246.104340,272.728455 245.440765,269.894196 243.746704,267.007050 
	C246.204102,265.035980 248.457672,265.809326 251.186813,266.312134 
	C250.106064,269.739380 249.182098,272.669495 248.173309,275.991394 
z"/>
<path fill="#000000" opacity="1.000000" stroke="none" 
	d="
M359.322693,272.197754 
	C359.396088,275.884827 358.580627,279.339081 362.232666,281.843872 
	C358.844330,283.944092 356.181000,283.665039 352.913483,282.211060 
	C355.064972,279.498932 356.202423,276.755951 355.727295,273.498077 
	C355.456970,271.644440 355.624023,269.623108 353.089233,269.457367 
	C350.756409,269.304840 349.332367,270.827484 348.656464,272.810394 
	C347.532104,276.108582 348.044495,279.275940 350.918182,282.042603 
	C347.598175,283.851501 345.022736,283.583527 342.343506,282.514343 
	C344.493591,274.953125 345.177277,267.589996 342.139038,260.250519 
	C346.781250,257.271515 347.663147,258.077728 348.553253,266.391052 
	C351.378387,266.110352 354.309784,264.550507 357.046112,266.492462 
	C358.827789,267.756927 359.355011,269.663910 359.322693,272.197754 
z"/>
<path fill="#000000" opacity="1.000000" stroke="none" 
	d="
M314.436981,279.469055 
	C313.581024,283.512939 308.324066,285.159760 303.396729,283.183990 
	C299.055664,281.443268 297.499847,277.815948 297.954254,273.542786 
	C298.387115,269.472168 300.512146,266.316742 305.003418,265.657135 
	C309.491852,264.997894 313.274628,265.923462 315.308075,270.560883 
	C316.724792,273.791870 315.996002,275.585602 312.246826,275.950958 
	C309.194153,276.248474 305.995544,275.280884 302.394531,276.987244 
	C305.874847,282.065369 310.395172,278.732178 314.436981,279.469055 
M310.430786,271.444794 
	C308.326111,267.370728 305.925293,269.239899 302.595764,271.122986 
	C305.557831,272.261902 307.739777,272.013733 310.430786,271.444794 
z"/>
<path fill="#000000" opacity="1.000000" stroke="none" 
	d="
M290.408203,266.141602 
	C289.542816,264.284393 288.386810,264.048523 287.144287,265.185944 
	C285.843109,266.377045 286.008240,278.071411 287.280212,279.183655 
	C288.539124,280.284485 291.169769,279.372131 291.439026,281.972839 
	C287.723663,283.939270 281.812439,283.906982 277.762939,281.681274 
	C286.029083,277.530731 281.660095,270.729645 282.691101,264.660950 
	C277.571472,264.822723 280.642395,270.273376 276.629913,270.697754 
	C274.012787,268.561493 274.753510,265.540375 275.499420,262.789124 
	C276.181885,260.271851 278.643127,260.807770 280.568268,260.757111 
	C283.388763,260.682922 286.213318,260.694672 289.034729,260.746460 
	C290.981049,260.782135 293.538544,260.358398 293.937256,262.951569 
	C294.345978,265.609222 295.609467,268.820831 292.358337,270.824097 
	C289.995789,269.899323 290.630493,268.027252 290.408203,266.141602 
z"/>
<path fill="#000000" opacity="1.000000" stroke="none" 
	d="
M163.875336,279.614685 
	C164.146851,273.092651 164.450699,272.901276 176.140030,271.598999 
	C173.456940,266.281189 168.340683,272.007996 164.936432,268.839020 
	C167.393250,264.713348 171.267548,265.324036 174.884094,265.597198 
	C178.573746,265.875885 179.890640,268.517273 180.183105,271.783783 
	C180.499451,275.316864 179.306671,279.168610 183.248047,281.705353 
	C175.784012,285.092743 167.146561,284.151703 163.875336,279.614685 
M174.037979,275.954254 
	C171.349365,275.114410 168.986465,275.129791 167.589493,278.162109 
	C170.352325,279.937347 171.275909,280.159424 173.009689,279.562775 
	C174.964462,278.890045 175.194946,278.401611 174.037979,275.954254 
z"/>
<path fill="#000000" opacity="1.000000" stroke="none" 
	d="
M204.832886,281.315857 
	C202.672287,284.798462 199.942520,282.984833 196.914215,282.703583 
	C198.198517,279.226318 199.550079,276.030151 198.863678,272.501678 
	C198.635071,271.326508 198.490067,270.130768 197.209198,269.660858 
	C195.791565,269.140717 194.610748,269.776581 193.566620,270.693298 
	C190.597885,273.299866 190.669800,277.334564 193.749435,281.756561 
	C190.553391,283.877899 189.448029,283.920349 185.163803,281.918243 
	C188.740051,277.053375 189.035965,272.098175 184.241714,266.494934 
	C190.116928,266.058105 195.215164,264.832642 200.133560,266.367889 
	C202.879333,267.224976 202.973480,270.613922 203.129486,273.293457 
	C203.282669,275.924591 202.808701,278.665955 204.832886,281.315857 
z"/>
<path fill="#000000" opacity="1.000000" stroke="none" 
	d="
M226.510040,274.196716 
	C226.490860,279.094086 224.310349,282.049835 220.025223,283.471527 
	C216.273499,284.716217 213.125046,283.548248 210.596771,280.796143 
	C207.877823,277.836517 207.366318,274.310089 209.014160,270.642731 
	C210.898392,266.449341 214.405334,264.930298 218.774078,265.513245 
	C223.523529,266.146973 226.053284,269.061951 226.510040,274.196716 
M222.605164,273.784393 
	C221.907120,270.792206 220.086105,269.192078 216.950150,269.353241 
	C214.693970,269.469238 213.155518,270.791809 212.613495,272.856720 
	C211.822220,275.871155 212.326218,278.788788 215.815750,279.563293 
	C219.662979,280.417236 222.292831,278.818268 222.605164,273.784393 
z"/>
<path fill="#000000" opacity="1.000000" stroke="none" 
	d="
M338.016724,270.635559 
	C336.702759,274.987366 335.263153,273.752625 333.438599,271.297211 
	C331.331482,268.461578 328.522156,268.554443 326.065613,270.648071 
	C323.762665,272.610748 323.534546,275.365570 325.265533,277.845856 
	C327.255890,280.697723 330.203156,279.949890 332.990540,279.307007 
	C334.457947,278.968567 336.304901,277.107452 337.230774,279.478882 
	C338.190704,281.937531 335.638580,282.489471 334.070648,283.037537 
	C329.932617,284.483856 325.807434,284.624573 322.609833,280.977783 
	C319.710205,277.670807 319.096924,273.914124 321.296844,269.921478 
	C323.464691,265.987000 333.569763,263.472412 336.909546,266.094971 
	C338.232056,267.133484 338.042511,268.764923 338.016724,270.635559 
z"/>
</svg>